<svg width="36" height="40" viewBox="0 0 36 40" fill="none" xmlns="http://www.w3.org/2000/svg">
<g clip-path="url(#clip0)">
<path d="M11.7001 0C12.7001 0 13.7001 0 14.7001 0C15.8001 0 16.7001 0.4 17.3001 1.3C17.7001 1.9 18.0001 2 18.4001 1.3C19.1001 0.4 20.0001 0 21.2001 0C23.0001 0 24.7001 0 26.5001 0C30.8001 0 33.8001 2.7 34.2001 7C34.8001 12.4 35.4001 17.8 35.9001 23.2C36.2001 26 35.0001 28.2 32.7001 29.8C28.4001 32.9 24.0001 36 19.7001 39.1C17.9001 40.4 17.9001 40.4 16.1001 39.1C12.1001 36.2 8.2001 33.3 4.1001 30.5C0.700102 28.3 -0.499898 25.4 0.100102 21.4C0.800102 16.6 1.2001 11.8 1.6001 7C2.1001 2.7 5.1001 0 9.4001 0C10.2001 0 11.0001 0 11.7001 0ZM24.3001 18C25.3001 17.7 26.3001 17.4 27.3001 17C28.3001 16.7 28.7001 16.1 28.6001 15.1C28.4001 13 28.2001 10.8 27.9001 8.7C27.6001 6.6 26.2001 5.4 24.2001 5.3C23.2001 5.3 22.3001 5.3 21.3001 5.3C20.1001 5.3 19.1001 5.7 18.4001 6.7C18.1001 7.2 17.7001 7.3 17.4001 6.7C16.7001 5.6 15.7001 5.3 14.4001 5.3C13.6001 5.3 12.8001 5.3 12.0001 5.3C9.4001 5.3 8.0001 6.6 7.7001 9.2C7.5001 11 7.3001 12.9 7.1001 14.7C7.0001 16.1 7.3001 16.6 8.6001 17C9.5001 17.3 10.4001 17.6 11.4001 17.9C11.2001 18.1 11.1001 18.1 11.0001 18.1C9.9001 18.2 9.8001 18.4 10.1001 19.5C10.3001 20.1 10.4001 20.8 10.6001 21.4C10.9001 22.5 11.5001 22.9 12.7001 22.8C13.7001 22.7 14.6001 22.4 15.6001 22.3C16.3001 22.2 17.0001 22 17.1001 21.1C17.2001 19.7 16.9001 18.9 16.0001 18.6C14.9001 18.2 14.3001 17.5 14.2001 16.4C14.1001 15.9 14.0001 15.4 13.9001 14.9C13.8001 14.1 13.4001 13.7 12.6001 13.6C11.7001 13.4 10.7001 13.2 9.8001 13C9.8001 12.9 9.8001 12.8 9.8001 12.7C11.2001 12.6 12.6001 12.5 14.1001 12.5C14.4001 12.5 14.9001 13 15.0001 13.4C15.2001 14.1 15.3001 14.8 15.4001 15.6C15.5001 16.4 15.9001 16.7 16.7001 16.7C17.5001 16.7 18.3001 16.7 19.1001 16.7C19.8001 16.7 20.2001 16.4 20.4001 15.7C20.5001 15 20.7001 14.3 20.9001 13.5C21.0001 12.8 21.5001 12.4 22.2001 12.5C23.2001 12.6 24.1001 12.6 25.1001 12.7C25.4001 12.7 25.8001 12.8 26.1001 12.8C25.5001 13.2 24.9001 13.4 24.2001 13.4C22.7001 13.5 21.9001 14.3 21.8001 15.8C21.7001 17.2 21.2001 18.2 19.7001 18.7C18.6001 19.1 18.7001 20.2 18.8001 21.1C18.9001 21.5 19.3001 22 19.6001 22.1C20.8001 22.4 22.1001 22.6 23.4001 22.8C24.3001 22.9 24.9001 22.5 25.1001 21.6C25.3001 21 25.4001 20.4 25.6001 19.8C25.9001 18.5 25.9001 18.4 24.3001 18ZM13.3001 24.6C13.2001 26.1 13.7001 26.7 15.2001 27C17.1001 27.4 19.0001 27.4 20.9001 27C22.2001 26.7 22.7001 25.9 22.5001 24.6C19.4001 23.6 16.4001 23.6 13.3001 24.6Z" fill="url(#paint0_linear)"/>
</g>
<defs>
<linearGradient id="paint0_linear" x1="-0.0480957" y1="20.0375" x2="35.9455" y2="20.0375" gradientUnits="userSpaceOnUse">
<stop stop-color="#00D1FF"/>
<stop offset="0.500177" stop-color="#AB00FF"/>
<stop offset="1" stop-color="#FF000F"/>
</linearGradient>
<clipPath id="clip0">
<rect width="35.9" height="40" fill="white"/>
</clipPath>
</defs>
</svg>
