<svg width="142" height="40" viewBox="0 0 142 40" fill="none" xmlns="http://www.w3.org/2000/svg">
<g clip-path="url(#clip0)">
<path d="M11.7001 0C12.7001 0 13.7001 0 14.7001 0C15.8001 0 16.7001 0.4 17.3001 1.3C17.7001 1.9 18.0001 2 18.4001 1.3C19.1001 0.4 20.0001 0 21.2001 0C23.0001 0 24.7001 0 26.5001 0C30.8001 0 33.8001 2.7 34.2001 7C34.8001 12.4 35.4001 17.8 35.9001 23.2C36.2001 26 35.0001 28.2 32.7001 29.8C28.4001 32.9 24.0001 36 19.7001 39.1C17.9001 40.4 17.9001 40.4 16.1001 39.1C12.1001 36.2 8.2001 33.3 4.1001 30.5C0.700102 28.3 -0.499898 25.4 0.100102 21.4C0.800102 16.6 1.2001 11.8 1.6001 7C2.1001 2.7 5.1001 0 9.4001 0C10.2001 0 11.0001 0 11.7001 0ZM24.3001 18C25.3001 17.7 26.3001 17.4 27.3001 17C28.3001 16.7 28.7001 16.1 28.6001 15.1C28.4001 13 28.2001 10.8 27.9001 8.7C27.6001 6.6 26.2001 5.4 24.2001 5.3C23.2001 5.3 22.3001 5.3 21.3001 5.3C20.1001 5.3 19.1001 5.7 18.4001 6.7C18.1001 7.2 17.7001 7.3 17.4001 6.7C16.7001 5.6 15.7001 5.3 14.4001 5.3C13.6001 5.3 12.8001 5.3 12.0001 5.3C9.4001 5.3 8.0001 6.6 7.7001 9.2C7.5001 11 7.3001 12.9 7.1001 14.7C7.0001 16.1 7.3001 16.6 8.6001 17C9.5001 17.3 10.4001 17.6 11.4001 17.9C11.2001 18.1 11.1001 18.1 11.0001 18.1C9.9001 18.2 9.8001 18.4 10.1001 19.5C10.3001 20.1 10.4001 20.8 10.6001 21.4C10.9001 22.5 11.5001 22.9 12.7001 22.8C13.7001 22.7 14.6001 22.4 15.6001 22.3C16.3001 22.2 17.0001 22 17.1001 21.1C17.2001 19.7 16.9001 18.9 16.0001 18.6C14.9001 18.2 14.3001 17.5 14.2001 16.4C14.1001 15.9 14.0001 15.4 13.9001 14.9C13.8001 14.1 13.4001 13.7 12.6001 13.6C11.7001 13.4 10.7001 13.2 9.8001 13C9.8001 12.9 9.8001 12.8 9.8001 12.7C11.2001 12.6 12.6001 12.5 14.1001 12.5C14.4001 12.5 14.9001 13 15.0001 13.4C15.2001 14.1 15.3001 14.8 15.4001 15.6C15.5001 16.4 15.9001 16.7 16.7001 16.7C17.5001 16.7 18.3001 16.7 19.1001 16.7C19.8001 16.7 20.2001 16.4 20.4001 15.7C20.5001 15 20.7001 14.3 20.9001 13.5C21.0001 12.8 21.5001 12.4 22.2001 12.5C23.2001 12.6 24.1001 12.6 25.1001 12.7C25.4001 12.7 25.8001 12.8 26.1001 12.8C25.5001 13.2 24.9001 13.4 24.2001 13.4C22.7001 13.5 21.9001 14.3 21.8001 15.8C21.7001 17.2 21.2001 18.2 19.7001 18.7C18.6001 19.1 18.7001 20.2 18.8001 21.1C18.9001 21.5 19.3001 22 19.6001 22.1C20.8001 22.4 22.1001 22.6 23.4001 22.8C24.3001 22.9 24.9001 22.5 25.1001 21.6C25.3001 21 25.4001 20.4 25.6001 19.8C25.9001 18.5 25.9001 18.4 24.3001 18ZM13.3001 24.6C13.2001 26.1 13.7001 26.7 15.2001 27C17.1001 27.4 19.0001 27.4 20.9001 27C22.2001 26.7 22.7001 25.9 22.5001 24.6C19.4001 23.6 16.4001 23.6 13.3001 24.6Z" fill="url(#paint0_linear)"/>
</g>
<path d="M50.6 26.6C51.8 26.6 52.925 26.325 53.925 25.725C54.925 25.125 55.7 24.35 56.25 23.35L53.45 21.75C53.2 22.275 52.8 22.675 52.3 22.975C51.8 23.275 51.225 23.4 50.575 23.4C49.6 23.4 48.8 23.1 48.175 22.45C47.525 21.8 47.225 21 47.225 20C47.225 19 47.525 18.2 48.175 17.55C48.8 16.9 49.6 16.575 50.575 16.575C51.2 16.575 51.775 16.725 52.275 17.025C52.775 17.325 53.175 17.75 53.425 18.25L56.2 16.625C55.675 15.65 54.925 14.875 53.925 14.275C52.925 13.7 51.8 13.4 50.6 13.4C48.7 13.4 47.125 14.05 45.875 15.3C44.625 16.575 44 18.15 44 20C44 21.875 44.625 23.45 45.875 24.7C47.125 25.975 48.7 26.6 50.6 26.6Z" fill="black"/>
<path d="M63.7104 26.6C65.5604 26.6 67.1104 25.975 68.4104 24.7C69.6854 23.425 70.3354 21.85 70.3354 20C70.3354 18.15 69.6854 16.6 68.4104 15.325C67.1104 14.05 65.5604 13.4 63.7104 13.4C61.8604 13.4 60.2854 14.05 59.0104 15.325C57.7354 16.6 57.1104 18.15 57.1104 20C57.1104 21.85 57.7354 23.425 59.0104 24.7C60.2854 25.975 61.8604 26.6 63.7104 26.6ZM63.7104 23.45C62.7354 23.45 61.9354 23.125 61.2854 22.475C60.6354 21.825 60.3354 21 60.3354 20C60.3354 19 60.6354 18.175 61.2854 17.525C61.9354 16.875 62.7354 16.55 63.7104 16.55C64.6604 16.55 65.4854 16.875 66.1354 17.525C66.7854 18.175 67.1104 19 67.1104 20C67.1104 21 66.7854 21.825 66.1354 22.475C65.4854 23.125 64.6604 23.45 63.7104 23.45Z" fill="black"/>
<path d="M72.6041 26.25H75.8291V8H72.6041V26.25Z" fill="black"/>
<path d="M84.7309 26.6C86.5809 26.6 88.1309 25.975 89.4309 24.7C90.7059 23.425 91.3559 21.85 91.3559 20C91.3559 18.15 90.7059 16.6 89.4309 15.325C88.1309 14.05 86.5809 13.4 84.7309 13.4C82.8809 13.4 81.3059 14.05 80.0309 15.325C78.7559 16.6 78.1309 18.15 78.1309 20C78.1309 21.85 78.7559 23.425 80.0309 24.7C81.3059 25.975 82.8809 26.6 84.7309 26.6ZM84.7309 23.45C83.7559 23.45 82.9559 23.125 82.3059 22.475C81.6559 21.825 81.3559 21 81.3559 20C81.3559 19 81.6559 18.175 82.3059 17.525C82.9559 16.875 83.7559 16.55 84.7309 16.55C85.6809 16.55 86.5059 16.875 87.1559 17.525C87.8059 18.175 88.1309 19 88.1309 20C88.1309 21 87.8059 21.825 87.1559 22.475C86.5059 23.125 85.6809 23.45 84.7309 23.45Z" fill="black"/>
<path d="M96.8496 15.9V13.75H93.6246V26.25H96.8496V20.275C96.8496 19.075 97.2246 18.225 97.9996 17.7C98.7746 17.2 99.6496 17 100.65 17.1V13.5C99.7996 13.5 99.0246 13.7 98.3246 14.1C97.6246 14.5 97.1496 15.1 96.8496 15.9Z" fill="black"/>
<path d="M102.536 26.25H105.761V8H102.536V26.25Z" fill="black"/>
<path d="M110.312 12.25C110.863 12.25 111.313 12.075 111.713 11.675C112.113 11.275 112.312 10.825 112.312 10.275C112.312 9.75 112.113 9.275 111.713 8.875C111.313 8.475 110.863 8.275 110.312 8.275C109.762 8.275 109.312 8.475 108.912 8.875C108.512 9.275 108.338 9.75 108.338 10.275C108.338 10.825 108.512 11.275 108.912 11.675C109.312 12.075 109.762 12.25 110.312 12.25ZM108.713 26.25H111.938V13.75H108.713V26.25Z" fill="black"/>
<path d="M120.839 26.6C122.689 26.6 124.239 25.975 125.539 24.7C126.814 23.425 127.464 21.85 127.464 20C127.464 18.15 126.814 16.6 125.539 15.325C124.239 14.05 122.689 13.4 120.839 13.4C118.989 13.4 117.414 14.05 116.139 15.325C114.864 16.6 114.239 18.15 114.239 20C114.239 21.85 114.864 23.425 116.139 24.7C117.414 25.975 118.989 26.6 120.839 26.6ZM120.839 23.45C119.864 23.45 119.064 23.125 118.414 22.475C117.764 21.825 117.464 21 117.464 20C117.464 19 117.764 18.175 118.414 17.525C119.064 16.875 119.864 16.55 120.839 16.55C121.789 16.55 122.614 16.875 123.264 17.525C123.914 18.175 124.239 19 124.239 20C124.239 21 123.914 21.825 123.264 22.475C122.614 23.125 121.789 23.45 120.839 23.45Z" fill="black"/>
<path d="M136.683 13.4C134.983 13.4 133.733 14 132.958 15.15V13.75H129.733V26.25H132.958V19.5C132.958 18.475 133.208 17.7 133.708 17.175C134.208 16.675 134.858 16.4 135.708 16.4C136.458 16.4 137.058 16.625 137.508 17.075C137.958 17.525 138.183 18.15 138.183 18.975V26.25H141.408V18.575C141.408 16.975 140.958 15.7 140.058 14.775C139.158 13.875 138.033 13.4 136.683 13.4Z" fill="black"/>
<defs>
<linearGradient id="paint0_linear" x1="-0.0480957" y1="20.0375" x2="35.9455" y2="20.0375" gradientUnits="userSpaceOnUse">
<stop stop-color="#00D1FF"/>
<stop offset="0.500177" stop-color="#AB00FF"/>
<stop offset="1" stop-color="#FF000F"/>
</linearGradient>
<clipPath id="clip0">
<rect width="35.9" height="40" fill="white"/>
</clipPath>
</defs>
</svg>
